<?xml version="1.0" encoding="UTF-8"?>
<svg id="Layer_1" xmlns="http://www.w3.org/2000/svg" baseProfile="tiny" version="1.2" viewBox="0 0 22.32 22.32">
  <!-- Generator: Adobe Illustrator 29.6.1, SVG Export Plug-In . SVG Version: 2.1.1 Build 9)  -->
  <path d="M10.12,15.95h-4.94s0,0,0,0c0,0,0,0,0,0,0,0,0,0,0,0V5.99h4.96v-3.93H1.23v13.88c0,2.18,1.77,3.95,3.95,3.95h4.94v-3.93Z" fill="#ea5e5e"/>
  <polygon points="21.23 15.95 16.28 15.95 16.28 11.01 12.34 11.01 12.34 19.88 21.23 19.88 21.23 15.95" fill="#ea5e5e"/>
  <path d="M12.34,5.99h4.93s0,0,0,0c0,0,0,0,0,0,0,0,0,0,0,0v5.03h3.93v-5.03c0-2.18-1.77-3.95-3.95-3.95h-4.93v3.93Z" fill="#ea5e5e"/>
</svg>